<svg xmlns="http://www.w3.org/2000/svg" width="480" height="1007" viewBox="0 0 480 1007" preserveAspectRatio="none"><defs><linearGradient id="bg" x2="0.7" y2="1"><stop stop-color="#988cab"/><stop offset="1" stop-color="#ccc1dc"/></linearGradient><linearGradient id="tile" x2="0" y2="1"><stop stop-color="#d3c8df"/><stop offset=".82" stop-color="#a99bb9"/><stop offset="1" stop-color="#766986"/></linearGradient><filter id="shadow"><feGaussianBlur stdDeviation="4"/></filter></defs><rect width="480" height="1007" fill="url(#bg)"/><g fill="url(#tile)" stroke="#6d607b" stroke-width="2"><path d="M0 0H290V280Q290 330 350 330H480V410H58Q0 410 0 355Z"/><path d="M480 0H298V245Q298 325 355 325H480Z"/><path d="M0 415H350Q480 415 480 485Q480 550 410 550H75Q0 550 0 622V770H0Z"/><path d="M0 655Q0 570 75 570H400Q480 570 480 652V800Q480 850 430 850H80Q0 850 0 780Z"/><path d="M0 850H130Q185 850 185 900V1007H0Z"/></g><g font-family="sans-serif" fill="#292330"><text x="25" y="44" font-size="18">17:03</text><text x="365" y="44" font-size="16">▥ ◉ ▰</text></g><rect x="28" y="92" width="73" height="73" rx="19" fill="#754bdd"/><path d="M52 111H80V119H61V127H76V135H61V150H52Z" fill="white"/><text x="65" y="190" text-anchor="middle" font-family="sans-serif" font-size="15" fill="#292330">Fred</text><text x="240" y="880" font-family="sans-serif" font-size="15" fill="#564b61" text-anchor="middle">⌕ 搜索</text><rect x="18" y="905" width="444" height="86" rx="32" fill="#e8e0f3" opacity=".56"/><g font-family="sans-serif" text-anchor="middle" font-size="43"><rect x="35" y="917" width="62" height="62" rx="15" fill="#f9f9ff"/><text x="66" y="963" fill="#368de3">◉</text><rect x="148" y="917" width="62" height="62" rx="15" fill="#231c2e"/><text x="179" y="963" fill="#cdc2df">◉</text><rect x="262" y="917" width="62" height="62" rx="15" fill="#30c875"/><text x="293" y="960" fill="white">••</text><rect x="375" y="917" width="62" height="62" rx="15" fill="#31c970"/><text x="406" y="963" fill="white">⌕</text></g><rect x="154" y="996" width="172" height="5" rx="3" fill="#242028"/></svg>
